<?xml version="1.0" standalone="no"?>
<!DOCTYPE svg PUBLIC "-//W3C//DTD SVG 20010904//EN"
 "http://www.w3.org/TR/2001/REC-SVG-20010904/DTD/svg10.dtd">
<svg version="1.0" xmlns="http://www.w3.org/2000/svg"
 width="877.000000pt" height="877.000000pt" viewBox="0 0 877.000000 877.000000"
 preserveAspectRatio="xMidYMid meet">
<metadata>
Created by potrace 1.14, written by Peter Selinger 2001-2017
</metadata>
<g transform="translate(0.000000,877.000000) scale(0.100000,-0.100000)"
fill="#000000" stroke="none">
<path d="M4178 8765 c-2 -1 -48 -5 -103 -9 -92 -5 -223 -19 -314 -32 -83 -11
-226 -36 -232 -40 -3 -2 -21 -5 -40 -8 -19 -2 -72 -14 -119 -26 -47 -12 -94
-23 -105 -25 -11 -3 -58 -16 -105 -30 -47 -14 -92 -27 -100 -29 -37 -10 -225
-77 -319 -115 -437 -176 -862 -435 -1216 -740 -114 -99 -357 -338 -430 -424
-28 -33 -54 -64 -60 -71 -215 -249 -443 -596 -584 -891 -29 -60 -56 -118 -61
-127 -33 -61 -172 -420 -184 -473 -1 -5 -14 -48 -29 -95 -34 -112 -62 -224
-88 -351 -11 -57 -22 -112 -24 -121 -4 -19 -31 -208 -39 -274 -28 -231 -29
-802 -2 -974 2 -14 7 -52 11 -85 4 -32 8 -66 10 -75 1 -8 6 -37 9 -63 9 -59
23 -134 31 -167 1 -6 13 -66 19 -97 11 -52 78 -298 101 -369 33 -99 84 -243
95 -269 5 -11 30 -69 56 -130 86 -203 204 -425 327 -620 52 -82 195 -286 206
-295 3 -3 19 -23 36 -45 16 -22 31 -42 35 -45 3 -3 17 -21 32 -40 15 -19 39
-48 53 -65 15 -16 50 -56 78 -89 78 -88 300 -304 407 -396 204 -175 438 -340
668 -471 89 -52 115 -65 212 -114 146 -73 287 -136 405 -179 55 -20 109 -41
120 -46 40 -17 335 -104 385 -113 14 -3 43 -10 65 -16 44 -11 217 -46 280 -55
22 -4 54 -9 70 -11 17 -3 43 -7 59 -10 16 -2 59 -7 95 -11 36 -3 80 -7 96 -10
51 -6 295 -17 390 -17 102 0 357 11 395 17 14 2 54 7 90 11 133 13 267 34 400
61 41 9 83 17 93 19 127 26 494 138 592 180 17 7 86 36 155 65 400 167 821
432 1169 735 139 120 363 353 506 526 101 121 245 325 336 474 30 50 60 99 67
110 43 71 168 319 214 425 42 97 91 218 94 230 0 3 4 12 7 20 23 56 101 300
112 354 3 10 9 33 14 50 11 35 57 243 66 296 3 19 7 46 10 60 3 14 7 41 10 60
3 19 7 46 10 60 4 26 14 108 21 175 26 261 25 733 -1 920 -3 17 -7 50 -10 75
-16 134 -46 301 -90 504 -27 122 -149 497 -200 611 -7 17 -27 64 -45 105 -240
554 -645 1110 -1094 1505 -38 33 -73 65 -80 71 -9 8 -74 60 -236 187 -49 39
-181 127 -190 127 -5 0 -10 3 -10 8 0 6 -16 17 -85 57 -11 7 -51 32 -90 55
-342 211 -837 406 -1280 506 -34 8 -277 52 -325 59 -81 11 -94 13 -175 20 -44
3 -98 9 -120 12 -38 5 -522 12 -527 8z"/>
</g>
</svg>
